<svg id="calendar-blue" xmlns="http://www.w3.org/2000/svg" width="30" height="30" viewBox="0 0 30 30">
  <rect id="Rectangle_557" data-name="Rectangle 557" width="30" height="30" fill="none"/>
  <path id="Path_149" data-name="Path 149" d="M3.75,9.375V26.25h22.5V9.375ZM24.375,3.75h3.75A1.771,1.771,0,0,1,30,5.625v22.5A1.771,1.771,0,0,1,28.125,30H1.875A1.771,1.771,0,0,1,0,28.125V5.625A1.771,1.771,0,0,1,1.875,3.75h3.75V1.875A1.771,1.771,0,0,1,7.5,0,1.771,1.771,0,0,1,9.375,1.875V3.75h11.25V1.875a1.875,1.875,0,0,1,3.75,0ZM22.5,22.5H18.75V18.75H22.5Zm-5.625,0h-3.75V18.75h3.75ZM22.5,16.875H18.75v-3.75H22.5Zm-5.625,0h-3.75v-3.75h3.75ZM11.25,22.5H7.5V18.75h3.75Z" fill="#0069b2"/>
</svg>
