<svg xmlns="http://www.w3.org/2000/svg" width="38" height="34" viewBox="0 0 38 34">
  <g id="down-caret" transform="translate(38 34) rotate(180)" fill="#0069b2">
    <path d="M 29.47813987731934 32.5 L 8.521860122680664 32.5 C 7.266759872436523 32.5 6.13824987411499 31.85371208190918 5.503099918365479 30.77118110656738 C 4.867959976196289 29.68865203857422 4.854300022125244 28.38826179504395 5.466559886932373 27.29262161254883 L 15.94470024108887 8.542281150817871 C 16.57196998596191 7.419791221618652 17.71413993835449 6.749651432037354 19 6.749651432037354 C 20.28586006164551 6.749651432037354 21.42803001403809 7.419791221618652 22.05529975891113 8.542281150817871 L 32.53342819213867 27.29262161254883 C 33.14569854736328 28.38826179504395 33.13203811645508 29.68865203857422 32.49689865112305 30.77118110656738 C 31.86174964904785 31.85371208190918 30.73324012756348 32.5 29.47813987731934 32.5 Z" stroke="none"/>
    <path d="M 19 8.249650955200195 C 18.64718055725098 8.249650955200195 17.7707691192627 8.349460601806641 17.25411033630371 9.274002075195312 L 6.775979995727539 28.02436065673828 C 6.27168083190918 28.92678070068359 6.622579574584961 29.71507263183594 6.796859741210938 30.01210021972656 C 6.97113037109375 30.30914115905762 7.488090515136719 31.00000190734863 8.521860122680664 31.00000190734863 L 29.47813987731934 31.00000190734863 C 30.51190948486328 31.00000190734863 31.02886962890625 30.30914115905762 31.20314025878906 30.01210021972656 C 31.37742042541504 29.71507263183594 31.72832107543945 28.92678070068359 31.22402000427246 28.02435111999512 L 20.74588966369629 9.274011611938477 C 20.2292308807373 8.349460601806641 19.35281944274902 8.249650955200195 19 8.249650955200195 M 19 5.249652862548828 C 20.70532989501953 5.249652862548828 22.41065979003906 6.103282928466797 23.36471939086914 7.810541152954102 L 33.84284973144531 26.56089019775391 C 35.70532989501953 29.89374160766602 33.29607009887695 34 29.47813987731934 34 L 8.521860122680664 34 C 4.703929901123047 34 2.294670104980469 29.89374160766602 4.157150268554688 26.56089019775391 L 14.63528060913086 7.810541152954102 C 15.58934020996094 6.103282928466797 17.29467010498047 5.249652862548828 19 5.249652862548828 Z" stroke="none" fill="#fff"/>
  </g>
</svg>
