<svg xmlns="http://www.w3.org/2000/svg" width="28" height="28" viewBox="0 0 28 28">
  <g id="marker-blue" transform="translate(-199 -346)">
    <g id="Places" transform="translate(199 346)">
      <rect id="Rectangle_305" data-name="Rectangle 305" width="28" height="28" transform="translate(0 0)" fill="none"/>
      <path id="Path_114" data-name="Path 114" d="M11.343,16.388a4.811,4.811,0,0,0,4.82-4.82,4.959,4.959,0,0,0-4.82-4.992,4.811,4.811,0,0,0-4.82,4.82A5.08,5.08,0,0,0,11.343,16.388ZM3.252,3.307a11.441,11.441,0,0,1,16.18,16.18l-8.09,8.09-8.09-8.09A11.753,11.753,0,0,1,3.252,3.307Z" transform="translate(1.702 0.05)" fill="#0069b2"/>
    </g>
  </g>
</svg>
