<svg xmlns="http://www.w3.org/2000/svg" width="30" height="33" viewBox="0 0 30 33">
  <g id="next-caret" transform="translate(30) rotate(90)" fill="#f28119">
    <path d="M 24.54364776611328 28.50000381469727 L 8.456357955932617 28.50000381469727 C 7.20615816116333 28.50000381469727 6.079887866973877 27.85752296447754 5.443588256835938 26.78136253356934 C 4.80728816986084 25.70520401000977 4.787107944488525 24.40872383117676 5.38959789276123 23.31328392028809 L 13.43323802947998 8.688483238220215 C 14.0577278137207 7.553053379058838 15.20417785644531 6.875193119049072 16.49999809265137 6.875193119049072 C 17.79581832885742 6.875193119049072 18.94226837158203 7.553053379058838 19.56675720214844 8.688483238220215 L 27.61040878295898 23.31328392028809 C 28.21289825439453 24.40872383117676 28.19270896911621 25.70520401000977 27.5564079284668 26.78136253356934 C 26.92010879516602 27.85752296447754 25.79383850097656 28.50000381469727 24.54364776611328 28.50000381469727 Z" stroke="none"/>
    <path d="M 16.49999809265137 8.375192642211914 C 16.14443778991699 8.375192642211914 15.26192855834961 8.476152420043945 14.74756813049316 9.41136360168457 L 6.703927993774414 24.03616333007812 C 6.207677841186523 24.93843460083008 6.560178756713867 25.72263336181641 6.734777450561523 26.01792335510254 C 6.909368515014648 26.31320190429688 7.426618576049805 27.00000381469727 8.456357955932617 27.00000381469727 L 24.54364776611328 27.00000381469727 C 25.57337760925293 27.00000381469727 26.09062767028809 26.31320190429688 26.26521873474121 26.01792335510254 C 26.43981742858887 25.72263336181641 26.79232788085938 24.93842315673828 26.29607772827148 24.03616333007812 L 18.25242805480957 9.41136360168457 C 17.73806762695312 8.476163864135742 16.85554885864258 8.375192642211914 16.49999809265137 8.375192642211914 M 16.49999809265137 5.375192642211914 C 18.21562957763672 5.375192642211914 19.9312629699707 6.238662719726562 20.88107681274414 7.965602874755859 L 28.92472839355469 22.59040451049805 C 30.75746726989746 25.92266273498535 28.34665870666504 30.00000381469727 24.54364776611328 30.00000381469727 L 8.456357955932617 30.00000381469727 C 4.653337478637695 30.00000381469727 2.242528915405273 25.92266273498535 4.075277328491211 22.59040451049805 L 12.11891746520996 7.965602874755859 C 13.06873321533203 6.238662719726562 14.78436470031738 5.375192642211914 16.49999809265137 5.375192642211914 Z" stroke="none" fill="#fff"/>
  </g>
</svg>
